<?xml version="1.0" standalone="no"?>
<!DOCTYPE svg PUBLIC "-//W3C//DTD SVG 20010904//EN"
 "http://www.w3.org/TR/2001/REC-SVG-20010904/DTD/svg10.dtd">
<svg version="1.0" xmlns="http://www.w3.org/2000/svg"
 width="900.000000pt" height="948.000000pt" viewBox="0 0 900.000000 948.000000"
 preserveAspectRatio="xMidYMid meet">
<metadata>
Created by potrace 1.10, written by Peter Selinger 2001-2011
</metadata>
<g transform="translate(0.000000,948.000000) scale(0.100000,-0.100000)"
fill="#000000" stroke="none">
<path d="M1723 9468 c1 -6 -24 -17 -61 -24 -249 -52 -438 -195 -584 -439 -62
-105 -90 -189 -137 -423 -17 -86 -24 -318 -12 -417 37 -305 91 -495 218 -765
38 -81 146 -269 174 -304 5 -6 39 -51 76 -101 86 -116 175 -211 327 -347 22
-21 85 -70 138 -110 100 -75 116 -100 82 -128 -17 -15 -198 -286 -214 -322 -6
-13 -29 -54 -50 -93 -91 -161 -242 -472 -335 -690 -25 -60 -50 -119 -55 -130
-18 -42 -112 -280 -142 -358 -69 -185 -93 -252 -159 -452 -94 -285 -94 -285
-144 -475 -9 -36 -21 -76 -26 -90 -5 -14 -13 -45 -19 -70 -5 -25 -16 -74 -24
-110 -8 -36 -24 -110 -36 -165 -12 -55 -24 -111 -27 -125 -2 -14 -11 -56 -18
-95 -7 -38 -21 -114 -31 -167 -16 -95 -18 -99 -53 -120 -33 -20 -164 -116
-213 -157 -38 -31 -159 -175 -202 -240 -147 -224 -201 -439 -194 -765 6 -223
28 -320 119 -501 120 -242 316 -452 529 -568 215 -118 453 -169 678 -146 107
11 114 10 135 -8 31 -28 150 -103 227 -144 113 -61 217 -99 385 -140 38 -10
328 -14 1199 -16 1038 -3 1154 -2 1205 13 110 32 202 107 246 200 14 30 33 58
43 63 11 6 122 9 267 8 l248 -2 36 -45 c70 -87 167 -175 225 -203 105 -52 217
-73 296 -56 127 26 138 30 222 75 46 25 137 114 174 170 36 54 84 172 84 205
0 18 12 19 213 19 229 0 237 -2 237 -52 0 -35 53 -150 94 -203 86 -110 204
-184 340 -210 73 -15 87 -14 165 1 185 36 329 142 408 302 37 75 38 80 41 204
3 100 0 138 -13 180 -30 90 -98 190 -168 245 -16 12 -28 25 -28 30 1 4 81 8
179 8 159 1 184 3 247 24 91 31 158 74 221 143 80 88 109 158 264 648 28 91
56 174 61 185 11 26 76 233 82 265 3 14 23 77 45 140 22 63 54 160 71 215 18
55 65 204 106 330 41 127 79 249 85 273 6 23 15 40 20 37 6 -4 10 14 10 43 0
34 -5 52 -14 55 -8 3 -17 25 -21 49 -15 91 -83 209 -156 271 -56 49 -157 95
-229 107 -38 6 -267 10 -547 10 l-482 0 0 148 c1 123 -3 157 -20 205 -68 192
-184 335 -342 422 -26 14 -82 38 -125 53 -86 30 -83 27 -102 142 -40 244 -45
268 -108 523 -20 81 -76 248 -131 386 -68 174 -108 261 -192 416 -42 76 -231
359 -256 380 -6 6 -29 32 -51 60 -35 45 -237 249 -289 293 -12 9 -44 37 -73
61 -29 23 -67 53 -85 65 -132 92 -164 113 -177 119 -94 47 -120 81 -120 162 0
114 -84 453 -175 705 -19 52 -98 220 -154 328 -25 48 -158 245 -215 319 -113
145 -344 361 -482 449 -151 97 -330 174 -459 199 -37 7 -59 16 -57 23 1 9 -37
12 -148 12 -110 0 -149 -3 -148 -12 2 -7 -19 -17 -47 -23 -260 -61 -438 -247
-505 -527 -12 -54 -26 -98 -30 -98 -3 0 -44 37 -91 83 -46 46 -118 111 -159
146 -41 34 -82 67 -90 75 -52 44 -270 176 -367 222 -95 44 -231 89 -298 98
-68 10 -86 16 -80 27 4 5 -47 9 -124 9 -94 0 -130 -3 -128 -12z m317 -381 c81
-23 115 -37 218 -89 170 -88 289 -178 472 -360 161 -160 250 -273 406 -518 61
-96 193 -354 245 -479 22 -53 44 -104 49 -113 6 -10 10 -25 10 -34 0 -9 6 -28
14 -42 17 -34 35 -86 47 -136 15 -62 59 -142 90 -165 36 -27 102 -36 156 -22
52 14 109 77 118 130 3 20 10 43 15 51 27 44 474 35 701 -15 37 -8 76 -15 86
-15 11 0 39 -6 64 -14 24 -7 73 -21 109 -31 62 -16 87 -25 175 -58 177 -67
286 -121 447 -221 132 -83 201 -140 369 -306 171 -170 326 -384 434 -600 15
-30 31 -62 35 -71 5 -9 27 -61 51 -115 125 -293 215 -613 249 -884 16 -131 18
-123 -55 -158 -35 -18 -67 -32 -71 -32 -13 0 -123 -78 -168 -120 -43 -40 -110
-122 -143 -175 -56 -90 -82 -203 -83 -358 l0 -127 -606 2 -606 3 -27 80 c-32
94 -38 106 -110 204 -67 90 -155 164 -253 213 -142 71 -109 68 -833 68 l-652
0 -40 -29 c-65 -47 -83 -80 -83 -151 0 -54 4 -67 30 -100 17 -21 48 -47 70
-59 40 -21 50 -21 665 -21 698 0 660 4 762 -73 29 -21 69 -64 90 -95 l38 -57
-1 -115 c0 -98 -4 -122 -24 -165 -28 -62 -150 -185 -240 -243 -106 -69 -286
-154 -385 -182 -16 -4 -43 -13 -60 -19 -33 -11 -109 -30 -230 -58 -68 -15
-121 -17 -345 -16 -291 2 -314 -2 -371 -64 -65 -71 -74 -111 -38 -177 40 -74
95 -100 249 -116 119 -12 168 -26 280 -78 39 -18 132 -73 140 -82 3 -3 19 -14
35 -25 51 -32 145 -126 204 -205 95 -126 135 -216 166 -372 27 -132 11 -377
-31 -476 -8 -18 -14 -41 -14 -52 0 -10 -12 -28 -26 -39 -23 -18 -41 -21 -117
-21 -114 0 -175 -20 -233 -77 -34 -35 -43 -52 -49 -92 -10 -70 2 -110 43 -153
42 -45 85 -53 187 -39 39 5 109 15 156 22 75 11 99 10 180 -5 107 -19 152 -36
224 -82 120 -77 191 -175 216 -298 16 -83 0 -135 -46 -148 -17 -4 -527 -6
-1135 -4 -1091 3 -1106 3 -1180 24 -80 23 -195 68 -220 86 -8 6 -31 20 -50 30
-108 59 -299 231 -391 351 -51 67 -127 182 -159 241 -12 21 -25 46 -30 54 -11
18 -61 129 -83 188 -43 109 -46 116 -88 259 -6 18 -14 54 -19 80 -24 138 -31
176 -45 268 -42 279 4 896 91 1201 8 28 14 61 14 74 0 21 6 44 46 184 8 26 14
55 14 63 0 9 7 38 16 67 9 28 22 71 29 96 28 98 48 167 60 200 7 19 20 62 30
95 9 33 23 76 31 95 15 39 52 146 89 256 13 40 28 80 33 90 6 11 17 37 25 59
50 134 75 199 92 240 7 17 21 50 30 75 20 53 35 90 59 145 10 22 24 55 32 73
243 564 488 972 732 1220 51 51 92 99 92 107 0 8 8 18 18 24 30 17 2 33 -35
19 -28 -11 -36 -9 -75 18 -24 16 -50 32 -58 37 -43 22 -200 131 -200 139 0 4
-7 8 -15 8 -8 0 -15 4 -15 8 0 5 -30 30 -67 57 -65 47 -293 264 -293 279 0 4
-13 19 -28 34 -16 15 -39 44 -51 65 -13 20 -27 37 -32 37 -5 0 -9 5 -9 11 0 6
-13 28 -28 48 -16 20 -32 43 -35 51 -4 8 -16 29 -26 45 -34 54 -121 231 -121
247 0 9 -7 21 -15 28 -8 7 -15 21 -15 32 0 11 -6 29 -12 41 -14 24 -34 96 -48
169 -5 26 -13 56 -19 67 -6 11 -11 36 -11 56 0 20 -7 83 -16 140 -14 89 -15
131 -6 282 10 167 13 183 43 253 82 188 185 296 341 355 56 21 77 24 183 21
70 -2 143 -9 175 -19z m1910 3 c197 -55 388 -175 571 -361 75 -75 209 -238
209 -253 0 -3 19 -33 43 -68 24 -35 53 -83 66 -108 12 -25 26 -52 31 -60 38
-62 135 -307 167 -420 8 -30 21 -77 30 -105 8 -27 17 -81 20 -119 5 -69 5 -69
-18 -62 -72 21 -129 38 -174 52 -82 24 -166 44 -238 54 -38 5 -73 12 -78 15
-5 4 -93 13 -197 21 -147 11 -224 12 -361 4 -262 -15 -270 -15 -281 16 -6 14
-21 48 -34 77 -99 211 -124 264 -171 357 -28 58 -69 138 -89 178 l-38 73 0
187 c-1 153 2 198 17 247 29 97 56 147 110 200 72 73 138 95 270 91 55 -2 120
-9 145 -16z m2955 -4564 c119 -26 227 -112 282 -225 25 -49 28 -67 28 -151 0
-59 -5 -104 -13 -117 l-13 -23 -374 0 -374 0 -10 38 c-6 20 -11 62 -11 92 0
189 131 347 320 386 74 15 95 15 165 0z m1468 -883 c158 -6 159 -6 188 -35 25
-26 28 -36 28 -87 -1 -69 -18 -108 -20 -46 -1 22 -1 46 0 53 3 17 -18 42 -35
42 -7 0 -25 -5 -41 -11 -15 -7 -45 -11 -65 -10 -37 2 -50 -10 -26 -25 15 -9
-16 -22 -55 -23 -21 -1 -30 5 -34 19 -6 22 -23 27 -23 7 0 -8 -9 -22 -20 -32
-11 -10 -20 -28 -20 -39 0 -12 -7 -34 -15 -50 -8 -15 -15 -33 -15 -40 0 -6 -6
-23 -13 -37 -8 -14 -17 -44 -20 -66 -4 -23 -13 -54 -21 -70 -8 -15 -20 -48
-26 -73 -24 -87 -51 -175 -61 -192 -5 -10 -9 -26 -9 -36 0 -10 -9 -37 -20 -60
-11 -22 -20 -48 -20 -56 0 -9 -6 -30 -14 -48 -8 -18 -33 -89 -55 -158 -22 -69
-48 -145 -57 -170 -18 -48 -22 -63 -53 -180 -26 -99 -44 -145 -63 -167 -9 -10
-21 -36 -27 -57 -10 -37 -45 -86 -62 -86 -4 0 -20 -11 -34 -25 -15 -13 -42
-29 -61 -35 -40 -14 -40 -33 -1 -38 19 -2 27 -9 27 -23 0 -22 -29 -26 -48 -7
-10 10 -17 10 -32 0 -16 -10 -20 -10 -20 2 0 24 -64 29 -370 28 -102 0 -197
-1 -212 -1 -23 -1 -28 -5 -28 -26 0 -32 -18 -32 -26 0 -7 28 -25 32 -44 10
-11 -14 -16 -14 -35 -1 -32 21 -93 30 -109 17 -10 -8 -16 -9 -21 -1 -8 12 -75
13 -94 1 -9 -6 -23 -5 -36 1 -17 7 -38 6 -78 -6 -48 -14 -59 -14 -90 -1 -45
19 -200 23 -220 6 -11 -9 -17 -9 -22 0 -5 8 -42 9 -129 5 -144 -8 -130 -8
-187 -5 -25 1 -55 -4 -67 -10 -11 -6 -32 -11 -45 -11 -28 0 -80 37 -71 51 9
15 -23 56 -64 84 -55 36 -110 152 -128 264 -4 25 -13 56 -21 70 -7 14 -13 35
-13 46 0 20 -20 86 -46 155 -7 19 -16 52 -20 73 -3 20 -10 40 -15 43 -5 3 -9
18 -9 34 0 16 -6 44 -14 62 -8 18 -24 76 -36 128 -28 117 -50 192 -61 204 -5
6 -9 21 -9 35 0 15 -9 41 -20 59 -11 18 -20 47 -20 64 0 31 -37 157 -67 228
-8 19 -19 59 -24 90 -10 60 -30 84 -67 77 -13 -2 -42 0 -66 5 -49 10 -96 -3
-96 -27 0 -9 -4 -13 -10 -10 -16 10 -12 42 10 77 19 31 23 33 92 39 104 8
3241 10 3431 2z m-3393 -144 c-13 -23 -33 -21 -38 4 -3 12 4 17 23 17 23 0 25
-2 15 -21z m-127 -82 c-2 -4 -9 -5 -14 -2 -11 7 -12 68 -1 79 8 8 23 -64 15
-77z m197 23 c0 -13 -7 -20 -20 -20 -19 0 -19 1 -2 19 22 25 22 25 22 1z
m-167 -92 c2 -18 2 -37 -1 -42 -7 -12 -20 21 -21 52 -1 34 16 26 22 -10z m27
-106 c0 -10 7 -27 15 -39 18 -26 33 -143 17 -143 -14 0 -22 25 -22 68 -1 20
-7 48 -15 62 -17 29 -20 70 -5 70 6 0 10 -8 10 -18z m-413 -50 c6 -4 14 -21
18 -37 4 -17 13 -50 20 -75 13 -42 25 -86 59 -205 7 -27 21 -79 31 -115 18
-69 34 -128 60 -222 8 -32 22 -84 31 -115 9 -32 22 -78 29 -103 7 -25 21 -74
30 -110 10 -36 23 -85 30 -110 7 -25 20 -74 30 -110 9 -36 23 -87 31 -115 7
-27 20 -72 28 -100 7 -27 22 -79 31 -115 66 -243 124 -331 268 -408 55 -30 73
-34 170 -40 l108 -7 -68 -70 c-63 -66 -116 -151 -133 -215 l-6 -25 -247 -3
-247 -2 -21 47 c-79 181 -152 285 -261 373 -31 25 -104 69 -162 98 -58 29
-107 56 -110 61 -3 5 1 33 9 62 29 107 55 276 55 364 0 138 -34 333 -76 433
-8 18 -14 37 -14 42 0 10 -62 140 -83 175 -43 71 -160 215 -223 275 -82 77
-85 93 -21 105 40 7 130 33 182 52 99 37 126 49 220 94 55 27 125 66 155 88
62 44 61 43 77 33z m472 -199 c-1 -33 -2 -35 -8 -13 -4 14 -6 31 -3 38 8 22
12 13 11 -25z m66 -231 c-6 -14 -9 -12 -16 11 -11 40 1 71 14 34 5 -15 6 -35
2 -45z m28 -89 c7 -41 -3 -67 -14 -37 -11 27 -11 74 0 74 4 0 11 -16 14 -37z
m30 -105 c3 -21 2 -38 -2 -38 -10 0 -19 51 -13 69 6 17 8 12 15 -31z m-4447
-309 c11 -235 19 -305 50 -415 8 -28 14 -58 14 -68 0 -27 62 -216 110 -336 24
-58 102 -221 123 -255 45 -74 106 -166 130 -198 16 -20 26 -44 23 -52 -5 -15
-19 -12 -141 32 -200 73 -368 214 -478 403 -167 286 -168 688 -3 965 29 48
110 152 131 167 26 19 31 -10 41 -243z m4471 174 c-3 -10 -5 -2 -5 17 0 19 2
27 5 18 2 -10 2 -26 0 -35z m49 -120 c8 -32 13 -74 13 -93 -1 -34 -1 -33 -10
10 -5 24 -16 59 -24 77 -9 19 -13 43 -10 54 9 28 15 19 31 -48z m3050 0 c-11
-11 -17 4 -9 23 7 18 8 18 11 1 2 -10 1 -21 -2 -24z m-3002 -187 c3 -14 3 -32
-1 -42 -6 -16 -7 -16 -14 2 -11 27 -11 64 0 64 5 0 12 -11 15 -24z m2912 -84
c-12 -12 -18 8 -10 35 l8 28 4 -28 c2 -16 1 -31 -2 -35z m-2886 -34 c0 -32 -3
-39 -10 -28 -13 20 -13 70 0 70 6 0 10 -19 10 -42z m52 -64 c-2 -10 -6 -36 -9
-56 -3 -21 -9 -38 -13 -38 -20 0 -27 105 -7 113 20 9 32 1 29 -19z m623 -164
c8 -13 -56 -39 -75 -29 -8 4 -24 11 -35 14 -20 7 -20 7 0 15 28 12 103 12 110
0z m145 0 c12 -8 9 -10 -13 -10 -16 0 -26 4 -22 10 8 12 16 12 35 0z m189 4
c44 -9 39 -24 -9 -24 -29 0 -40 4 -40 15 0 17 4 18 49 9z m151 -4 c0 -5 -10
-10 -22 -10 -19 0 -20 2 -8 10 19 13 30 13 30 0z m205 0 c18 -8 17 -9 -7 -9
-16 -1 -28 4 -28 9 0 12 8 12 35 0z m149 -11 c-7 -11 -44 -12 -44 -1 0 15 11
20 30 15 11 -3 17 -9 14 -14z m276 5 c0 -2 -16 -4 -35 -4 -19 0 -35 4 -35 8 0
4 16 6 35 4 19 -2 35 -6 35 -8z m227 -13 c10 -14 7 -16 -20 -19 -17 -2 -33 1
-35 7 -5 14 -55 14 -69 0 -15 -15 -57 -7 -61 13 -4 21 17 25 103 20 48 -4 74
-10 82 -21z m84 0 c-12 -13 -21 -14 -38 -6 -34 15 -28 25 15 23 36 -1 38 -2
23 -17z m-1079 -163 c-17 -8 -26 -8 -34 0 -9 9 -4 12 23 11 32 0 33 -1 11 -11z
m526 5 c-10 -2 -26 -2 -35 0 -10 3 -2 5 17 5 19 0 27 -2 18 -5z m570 0 c-10
-2 -26 -2 -35 0 -10 3 -2 5 17 5 19 0 27 -2 18 -5z m-374 -390 c3 -4 -33 -44
-81 -90 l-88 -83 -275 6 -275 6 -72 74 c-40 40 -73 76 -73 78 0 3 134 7 298 9
163 1 356 3 428 5 72 1 134 -1 138 -5z m-1146 -258 c82 -25 152 -112 152 -191
0 -44 -42 -124 -78 -151 -15 -11 -51 -26 -79 -33 -125 -32 -243 61 -243 191 0
96 79 179 191 198 3 1 28 -6 57 -14z m1567 -30 c58 -44 85 -95 85 -163 0 -49
-5 -66 -29 -98 -35 -49 -62 -67 -124 -83 -83 -20 -165 14 -213 90 -18 30 -24
52 -24 98 0 69 22 115 73 154 43 32 60 36 135 33 49 -3 70 -9 97 -31z"/>
<path d="M1766 8659 c-4 -23 -13 -51 -21 -62 -18 -25 -11 -166 10 -207 7 -14
16 -44 20 -67 3 -23 13 -47 21 -54 11 -9 13 -23 9 -50 -4 -22 -2 -40 4 -44 6
-3 11 -17 11 -30 0 -14 9 -48 20 -77 11 -29 20 -65 20 -79 0 -15 7 -32 15 -39
8 -7 15 -27 15 -45 0 -18 7 -38 15 -45 8 -7 15 -19 15 -28 0 -23 61 -195 75
-212 7 -8 20 -37 30 -64 10 -26 26 -55 34 -64 9 -8 16 -20 16 -26 2 -21 36
-87 55 -106 11 -11 20 -28 20 -38 0 -10 7 -27 15 -37 30 -39 105 -156 105
-164 0 -4 9 -19 20 -32 11 -13 33 -39 48 -57 49 -59 176 -186 220 -220 23 -18
66 -44 95 -58 28 -14 59 -29 67 -33 113 -61 110 -63 110 67 -1 74 -5 115 -15
132 -8 14 -15 48 -15 75 0 28 -7 61 -15 75 -8 14 -14 36 -15 50 0 23 -13 69
-42 155 -6 17 -13 49 -18 73 -4 24 -12 48 -18 54 -7 7 -12 21 -12 33 0 12 -7
30 -15 41 -8 10 -15 31 -15 45 0 14 -7 34 -15 45 -8 10 -15 29 -15 40 0 12 -7
27 -15 34 -8 7 -15 22 -15 34 0 12 -7 31 -15 42 -8 10 -15 29 -15 42 0 12 -7
25 -15 28 -8 4 -15 14 -15 24 0 10 -7 23 -15 30 -8 7 -15 20 -15 30 0 10 -7
23 -15 30 -8 7 -15 20 -15 30 0 10 -7 23 -15 30 -8 7 -15 21 -15 31 0 10 -5
21 -11 24 -5 4 -15 17 -20 28 -5 12 -18 36 -29 52 -11 17 -24 41 -30 54 -6 13
-16 21 -24 18 -9 -4 -12 2 -9 17 3 13 -2 28 -11 35 -9 8 -16 17 -16 22 0 5 -8
18 -17 28 -30 32 -39 45 -46 65 -4 10 -13 16 -22 13 -9 -4 -12 -1 -8 8 3 8 -8
29 -23 46 -40 44 -116 119 -119 119 -2 0 -26 23 -53 50 -27 28 -55 50 -61 50
-6 0 -11 4 -11 9 0 5 -12 14 -27 20 -16 6 -35 15 -43 19 -75 43 -86 42 -94 -9z
m76 -101 c-15 -15 -26 -4 -18 18 5 13 9 15 18 6 9 -9 9 -15 0 -24z m185 -364
c9 -23 -11 -38 -26 -20 -13 16 -7 36 10 36 5 0 12 -7 16 -16z m83 -614 c0 -14
-7 -20 -22 -20 -20 0 -21 1 -3 20 10 11 20 20 22 20 1 0 3 -9 3 -20z m292 -22
c-6 -6 -15 -7 -21 -4 -7 4 -4 13 7 24 13 14 18 15 20 4 2 -8 -1 -19 -6 -24z
m-132 -128 c16 -16 17 -20 5 -20 -8 0 -24 9 -35 20 -16 16 -17 20 -5 20 8 0
24 -9 35 -20z m130 -320 c-19 -13 -30 -13 -30 0 0 6 10 10 23 10 18 0 19 -2 7
-10z"/>
<path d="M2780 6624 c0 -6 -7 -17 -15 -24 -22 -18 -19 -50 5 -50 13 0 20 7 20
20 0 13 5 18 15 14 11 -5 15 1 15 24 0 25 -4 30 -20 29 -11 -1 -20 -6 -20 -13z"/>
<path d="M2686 6526 c-33 -30 -33 -36 4 -36 17 0 30 5 30 10 0 6 -5 10 -12 10
-6 0 -3 9 7 20 25 28 1 25 -29 -4z"/>
<path d="M3810 6201 c-54 -13 -91 -36 -140 -88 -53 -56 -67 -79 -86 -142 -34
-112 -2 -231 86 -318 78 -79 169 -108 275 -88 94 18 157 56 211 129 41 56 57
101 61 181 4 59 0 79 -21 128 -31 68 -91 136 -153 173 -36 21 -61 27 -122 29
-42 2 -92 0 -111 -4z m140 -78 c16 -9 37 -31 46 -49 17 -31 17 -35 1 -69 -11
-24 -29 -41 -52 -51 -104 -43 -183 109 -87 168 34 22 57 22 92 1z"/>
<path d="M5630 6179 c-121 -67 -186 -202 -160 -332 21 -104 92 -194 184 -232
51 -22 144 -19 200 6 55 24 115 81 147 141 19 36 23 58 23 133 0 78 -4 97 -26
140 -32 61 -88 120 -139 146 -53 27 -180 26 -229 -2z m170 -54 c72 -37 75
-141 5 -171 -52 -22 -75 -17 -111 22 -45 47 -46 90 -3 133 34 35 65 39 109 16z"/>
<path d="M4950 5723 c-35 -24 -40 -33 -40 -79 0 -53 42 -113 105 -149 52 -31
56 -48 25 -117 -17 -39 -26 -47 -64 -58 -56 -16 -97 4 -126 60 -17 33 -26 40
-50 40 -52 0 -77 -70 -48 -137 20 -46 69 -103 111 -130 72 -45 160 -30 241 41
l28 25 42 -33 c22 -18 52 -39 65 -46 34 -18 112 -15 151 5 52 27 113 97 133
153 17 48 18 53 2 86 -23 48 -52 56 -82 22 -13 -15 -23 -33 -23 -40 0 -21 -35
-46 -72 -52 -52 -9 -93 17 -118 73 -28 64 -23 83 28 112 109 59 137 182 52
226 -45 23 -326 22 -360 -2z"/>
<path d="M6233 5553 c-30 -11 -10 -24 30 -19 23 2 50 5 60 5 10 1 16 5 13 10
-6 9 -80 12 -103 4z"/>
<path d="M6170 5515 c-21 -26 -6 -33 20 -9 19 18 21 24 9 24 -9 0 -22 -7 -29
-15z"/>
<path d="M6128 5404 c-1 -31 0 -61 4 -67 4 -7 8 18 8 56 0 81 -7 88 -12 11z"/>
<path d="M6357 5334 c-12 -12 -8 -24 7 -24 8 0 17 -6 19 -12 3 -7 6 -8 6 -2 1
16 -24 46 -32 38z"/>
<path d="M6154 5306 c-4 -9 -4 -20 0 -23 3 -4 12 -1 18 5 9 9 9 15 0 24 -9 9
-13 7 -18 -6z"/>
<path d="M6320 5270 c-7 -5 -2 -9 14 -12 15 -3 29 -2 31 2 7 11 -30 19 -45 10z"/>
<path d="M6265 5240 c-18 -8 -17 -9 7 -9 15 -1 30 4 33 9 7 12 -12 12 -40 0z"/>
<path d="M6264 2645 c0 -60 1 -84 3 -52 2 32 2 81 0 110 -2 29 -3 3 -3 -58z"/>
</g>
</svg>
